<svg width="117" height="126" viewBox="0 0 117 126" fill="none" xmlns="http://www.w3.org/2000/svg">
<path d="M44.3074 105.693C56.686 110.023 70.2157 109.727 82.3928 104.86C94.57 99.9931 104.569 90.8845 110.54 79.2214C116.511 67.5575 118.05 54.1282 114.871 41.4187C111.692 28.7094 104.012 17.5805 93.2503 10.0919C82.4889 2.60325 69.3758 -0.737994 56.3376 0.686557C43.2998 2.11111 31.22 8.20502 22.3341 17.8403C13.4483 27.4756 8.35797 39.9999 8.0054 53.0952C7.65283 66.1905 12.0619 78.97 20.4165 89.0683L28.7806 82.1651C22.097 74.086 18.5697 63.8627 18.8518 53.3865C19.1338 42.9103 23.2061 32.8908 30.3148 25.1826C37.4234 17.4743 47.0873 12.5992 57.5176 11.4596C67.9476 10.3199 78.4384 12.993 87.0473 18.9838C95.6563 24.9747 101.801 33.8779 104.344 44.0454C106.888 54.2129 105.656 64.9563 100.879 74.2871C96.1027 83.6183 88.1029 90.9048 78.3619 94.7984C68.6202 98.692 57.7962 98.9289 47.8933 95.4649L44.3074 105.693Z" fill="#0067E0"/>
<path d="M34.175 115.622C25.8718 112.403 18.8135 106.622 14.0278 99.1196L49.3082 76.6687L34.175 115.622Z" fill="#0067E0"/>
<path d="M35.6085 62.9713C38.4649 62.9713 41.0729 61.5324 42.3396 59.1012L40.2781 57.9104C39.3342 59.5725 37.6452 60.5897 35.5092 60.5897C32.2554 60.5897 29.7468 57.8856 29.7468 54.338C29.7468 50.84 32.2802 48.1607 35.5092 48.1607C37.6452 48.1607 39.3094 49.1779 40.2781 50.84L42.3396 49.6492C41.0729 47.218 38.4649 45.7543 35.6085 45.7543C30.9141 45.7543 27.1388 49.55 27.1388 54.338C27.1388 59.1756 30.9141 62.9713 35.6085 62.9713ZM46.6317 62.6736V56.6452C46.6317 54.2884 48.1469 52.5518 50.3078 52.5518C52.6177 52.5518 53.8099 54.4124 53.8099 56.5707V62.6736H56.2689V56.3227C56.2689 52.6014 54.257 50.2198 50.6803 50.2198C49.041 50.2198 47.5756 50.8648 46.6317 51.882V44.9356H44.1728V62.6736H46.6317ZM64.1285 62.9713C66.1155 62.9713 67.7299 62.0286 68.6489 60.5401V62.6736H70.9837V56.5707C70.9837 52.9487 68.177 50.2198 64.5011 50.2198C60.8003 50.2198 58.0184 53.0976 58.0184 56.5707C58.0184 60.0935 60.6015 62.9713 64.1285 62.9713ZM64.5011 60.6393C62.2409 60.6393 60.4774 58.8035 60.4774 56.5955C60.4774 54.3628 62.2409 52.527 64.5011 52.527C66.7861 52.527 68.5247 54.3628 68.5247 56.5955C68.5247 58.8035 66.7861 60.6393 64.5011 60.6393ZM79.0515 62.9961C79.9456 62.9961 80.9143 62.7232 81.5353 62.3015V60.0439C80.9392 60.4656 80.0698 60.7633 79.275 60.7633C77.8096 60.7633 76.8657 59.8206 76.8657 58.2329V52.651H81.5353V50.5175H76.8657V47.3669H74.4068V50.5175H71.9975V52.651H74.4068V58.3073C74.4068 61.0858 76.0212 62.9961 79.0515 62.9961ZM86.1597 62.6736L88.6435 59.0019C88.9167 58.5802 89.1154 58.1337 89.2396 57.6623H90.4567C90.5809 58.1337 90.7796 58.5802 91.0528 59.0019L93.5366 62.6736H96.3191L93.2385 58.0592C92.866 57.5135 92.6921 57.0421 92.6921 56.5955C92.6921 56.1738 92.8411 55.7521 93.1889 55.2311L96.3191 50.5175H93.5118L91.0528 54.2139C90.8044 54.5861 90.6305 55.0078 90.5064 55.4296H89.1899C89.0906 55.0078 88.8919 54.5861 88.6435 54.2139L86.1597 50.5175H83.3779L86.5074 55.2311C86.8552 55.7521 87.0042 56.1738 87.0042 56.5955C87.0042 57.0421 86.8303 57.5135 86.4578 58.0592L83.3779 62.6736H86.1597Z" fill="#0573F3"/>
</svg>
