<svg width="27" height="27" viewBox="0 0 27 27" fill="none" xmlns="http://www.w3.org/2000/svg">
<path d="M19.125 2.25H7.875C4.77 2.25 2.25 4.75875 2.25 7.8525V14.58V15.705C2.25 18.7987 4.77 21.3075 7.875 21.3075H9.5625C9.86625 21.3075 10.2712 21.51 10.4625 21.7575L12.15 23.9963C12.8925 24.9862 14.1075 24.9862 14.85 23.9963L16.5375 21.7575C16.7512 21.4762 17.0887 21.3075 17.4375 21.3075H19.125C22.23 21.3075 24.75 18.7987 24.75 15.705V7.8525C24.75 4.75875 22.23 2.25 19.125 2.25ZM14.625 15.4688H7.875C7.41375 15.4688 7.03125 15.0863 7.03125 14.625C7.03125 14.1637 7.41375 13.7812 7.875 13.7812H14.625C15.0863 13.7812 15.4688 14.1637 15.4688 14.625C15.4688 15.0863 15.0863 15.4688 14.625 15.4688ZM19.125 9.84375H7.875C7.41375 9.84375 7.03125 9.46125 7.03125 9C7.03125 8.53875 7.41375 8.15625 7.875 8.15625H19.125C19.5863 8.15625 19.9688 8.53875 19.9688 9C19.9688 9.46125 19.5863 9.84375 19.125 9.84375Z" fill="#F7FBFF"/>
</svg>
